<svg width="62" height="59" viewBox="0 0 62 59" fill="none" xmlns="http://www.w3.org/2000/svg">
<path d="M45.3794 46.0781L49.5727 52.7175" stroke="black" stroke-width="1.5" stroke-linecap="round" stroke-linejoin="round"/>
<path d="M31.751 46.4275L33.1487 57.2603" stroke="black" stroke-width="1.5" stroke-linecap="round" stroke-linejoin="round"/>
<path d="M15.6765 45.3792L9.03711 52.7175" stroke="black" stroke-width="1.5" stroke-linecap="round" stroke-linejoin="round"/>
<path d="M9.03718 28.2565L1 27.5576" stroke="black" stroke-width="1.5" stroke-linecap="round" stroke-linejoin="round"/>
<path d="M18.8214 10.0855L11.8325 0.999992" stroke="black" stroke-width="1.5" stroke-linecap="round" stroke-linejoin="round"/>
<path d="M36.9927 9.38661L38.7399 2.39776" stroke="black" stroke-width="1.5" stroke-linecap="round" stroke-linejoin="round"/>
<path d="M35.944 27.2082C53.4163 -2.14498 41.1858 14.6283 32.799 25.1115C29.3047 -0.0483189 30.353 14.6283 28.2565 24.4127C4.14481 16.026 15.6764 20.5688 25.8102 27.9071C9.38652 40.1376 15.6764 36.6432 26.509 32.1004C20.5684 55.5131 22.6651 46.777 30.0035 35.5948C41.1858 53.4164 35.5946 43.632 33.4979 34.5465C54.814 39.0893 45.7285 35.9443 36.9924 31.4015C57.2601 18.8216 45.0297 25.461 35.944 27.2082Z" stroke="black" stroke-width="1.5" stroke-linecap="round" stroke-linejoin="round"/>
<path d="M49.5728 16.026L60.7549 7.63939" stroke="black" stroke-width="1.5" stroke-linecap="round" stroke-linejoin="round"/>
<path d="M50.271 31.4015L59.0071 32.7992" stroke="black" stroke-width="1.5" stroke-linecap="round" stroke-linejoin="round"/>
</svg>
